<svg xmlns="http://www.w3.org/2000/svg" width="103.68" height="72" viewBox="0 0 103.68 72">
  <path id="icon-3" d="M79.754,54a9,9,0,1,1-8.973,9,9,9,0,0,1,8.973-9ZM23.926,54a9,9,0,1,1-8.971,9,9,9,0,0,1,8.971-9Zm58.853,5.966H76.73v6.068h6.048Zm-55.829,0H20.9v6.068H26.95ZM69.787,0V50.972A15.116,15.116,0,0,0,64.528,62H38.952A15.051,15.051,0,0,0,8.86,62H0V41.933H16.949a3.943,3.943,0,0,0,0-7.887H12.017V27.955h25.8a3.944,3.944,0,0,0,0-7.888H0V13.98H23.907a3.94,3.94,0,0,0,3.925-3.944,4.167,4.167,0,0,0-4.167-3.944H18.9V0H69.785ZM103.68,34V62H94.729A15.221,15.221,0,0,0,75.766,47.772V34Zm-97.7-6v6H0V28ZM87.929,7l13.756,21H75.766V7H87.929ZM12.96,0V6H6.978V0Z" fill="#fdd6ba"/>
</svg>
